<mxfile host="app.diagrams.net" agent="Mozilla/5.0 (Windows NT 10.0; Win64; x64) AppleWebKit/537.36 (KHTML, like Gecko) Chrome/132.0.0.0 Safari/537.36" version="26.0.15">
  <diagram name="페이지-1" id="dIUbjf9cOhIHA6yJ8xAt">
    <mxGraphModel dx="819" dy="441" grid="1" gridSize="10" guides="1" tooltips="1" connect="1" arrows="1" fold="1" page="1" pageScale="1" pageWidth="827" pageHeight="1169" math="0" shadow="0">
      <root>
        <mxCell id="0" />
        <mxCell id="1" parent="0" />
        <mxCell id="kxPsCWveaDNPL1U-g0tw-1" value="" style="rounded=0;whiteSpace=wrap;html=1;" vertex="1" parent="1">
          <mxGeometry x="50" y="140" width="10" height="30" as="geometry" />
        </mxCell>
        <mxCell id="kxPsCWveaDNPL1U-g0tw-2" value="" style="rounded=0;whiteSpace=wrap;html=1;" vertex="1" parent="1">
          <mxGeometry x="60" y="140" width="10" height="30" as="geometry" />
        </mxCell>
        <mxCell id="kxPsCWveaDNPL1U-g0tw-3" value="" style="rounded=0;whiteSpace=wrap;html=1;" vertex="1" parent="1">
          <mxGeometry x="70" y="140" width="10" height="30" as="geometry" />
        </mxCell>
        <mxCell id="kxPsCWveaDNPL1U-g0tw-7" value="" style="rounded=0;whiteSpace=wrap;html=1;" vertex="1" parent="1">
          <mxGeometry x="80" y="140" width="10" height="30" as="geometry" />
        </mxCell>
        <mxCell id="kxPsCWveaDNPL1U-g0tw-8" value="" style="rounded=0;whiteSpace=wrap;html=1;" vertex="1" parent="1">
          <mxGeometry x="90" y="140" width="10" height="30" as="geometry" />
        </mxCell>
        <mxCell id="kxPsCWveaDNPL1U-g0tw-9" value="" style="rounded=0;whiteSpace=wrap;html=1;" vertex="1" parent="1">
          <mxGeometry x="100" y="140" width="10" height="30" as="geometry" />
        </mxCell>
        <mxCell id="kxPsCWveaDNPL1U-g0tw-10" value="" style="rounded=0;whiteSpace=wrap;html=1;" vertex="1" parent="1">
          <mxGeometry x="110" y="140" width="10" height="30" as="geometry" />
        </mxCell>
        <mxCell id="kxPsCWveaDNPL1U-g0tw-11" value="" style="rounded=0;whiteSpace=wrap;html=1;" vertex="1" parent="1">
          <mxGeometry x="120" y="140" width="10" height="30" as="geometry" />
        </mxCell>
        <mxCell id="kxPsCWveaDNPL1U-g0tw-12" value="" style="rounded=0;whiteSpace=wrap;html=1;" vertex="1" parent="1">
          <mxGeometry x="130" y="140" width="10" height="30" as="geometry" />
        </mxCell>
        <mxCell id="kxPsCWveaDNPL1U-g0tw-13" value="" style="rounded=0;whiteSpace=wrap;html=1;" vertex="1" parent="1">
          <mxGeometry x="140" y="140" width="10" height="30" as="geometry" />
        </mxCell>
        <mxCell id="kxPsCWveaDNPL1U-g0tw-14" value="" style="rounded=0;whiteSpace=wrap;html=1;" vertex="1" parent="1">
          <mxGeometry x="150" y="140" width="10" height="30" as="geometry" />
        </mxCell>
        <mxCell id="kxPsCWveaDNPL1U-g0tw-15" value="" style="rounded=0;whiteSpace=wrap;html=1;" vertex="1" parent="1">
          <mxGeometry x="160" y="140" width="10" height="30" as="geometry" />
        </mxCell>
        <mxCell id="kxPsCWveaDNPL1U-g0tw-16" value="" style="rounded=0;whiteSpace=wrap;html=1;" vertex="1" parent="1">
          <mxGeometry x="170" y="140" width="10" height="30" as="geometry" />
        </mxCell>
        <mxCell id="kxPsCWveaDNPL1U-g0tw-17" value="" style="rounded=0;whiteSpace=wrap;html=1;" vertex="1" parent="1">
          <mxGeometry x="180" y="140" width="10" height="30" as="geometry" />
        </mxCell>
        <mxCell id="kxPsCWveaDNPL1U-g0tw-18" value="" style="rounded=0;whiteSpace=wrap;html=1;" vertex="1" parent="1">
          <mxGeometry x="190" y="140" width="10" height="30" as="geometry" />
        </mxCell>
        <mxCell id="kxPsCWveaDNPL1U-g0tw-19" value="" style="rounded=0;whiteSpace=wrap;html=1;" vertex="1" parent="1">
          <mxGeometry x="200" y="140" width="10" height="30" as="geometry" />
        </mxCell>
        <mxCell id="kxPsCWveaDNPL1U-g0tw-20" value="" style="rounded=0;whiteSpace=wrap;html=1;" vertex="1" parent="1">
          <mxGeometry x="210" y="140" width="10" height="30" as="geometry" />
        </mxCell>
        <mxCell id="kxPsCWveaDNPL1U-g0tw-21" value="" style="rounded=0;whiteSpace=wrap;html=1;" vertex="1" parent="1">
          <mxGeometry x="220" y="140" width="10" height="30" as="geometry" />
        </mxCell>
        <mxCell id="kxPsCWveaDNPL1U-g0tw-22" value="" style="rounded=0;whiteSpace=wrap;html=1;" vertex="1" parent="1">
          <mxGeometry x="230" y="140" width="10" height="30" as="geometry" />
        </mxCell>
        <mxCell id="kxPsCWveaDNPL1U-g0tw-23" value="" style="rounded=0;whiteSpace=wrap;html=1;" vertex="1" parent="1">
          <mxGeometry x="240" y="140" width="10" height="30" as="geometry" />
        </mxCell>
        <mxCell id="kxPsCWveaDNPL1U-g0tw-24" value="" style="rounded=0;whiteSpace=wrap;html=1;" vertex="1" parent="1">
          <mxGeometry x="250" y="140" width="10" height="30" as="geometry" />
        </mxCell>
        <mxCell id="kxPsCWveaDNPL1U-g0tw-25" value="" style="rounded=0;whiteSpace=wrap;html=1;" vertex="1" parent="1">
          <mxGeometry x="260" y="140" width="10" height="30" as="geometry" />
        </mxCell>
        <mxCell id="kxPsCWveaDNPL1U-g0tw-26" value="" style="rounded=0;whiteSpace=wrap;html=1;" vertex="1" parent="1">
          <mxGeometry x="270" y="140" width="10" height="30" as="geometry" />
        </mxCell>
        <mxCell id="kxPsCWveaDNPL1U-g0tw-27" value="" style="rounded=0;whiteSpace=wrap;html=1;" vertex="1" parent="1">
          <mxGeometry x="280" y="140" width="10" height="30" as="geometry" />
        </mxCell>
        <mxCell id="kxPsCWveaDNPL1U-g0tw-28" value="" style="rounded=0;whiteSpace=wrap;html=1;" vertex="1" parent="1">
          <mxGeometry x="290" y="140" width="10" height="30" as="geometry" />
        </mxCell>
        <mxCell id="kxPsCWveaDNPL1U-g0tw-29" value="" style="rounded=0;whiteSpace=wrap;html=1;" vertex="1" parent="1">
          <mxGeometry x="300" y="140" width="10" height="30" as="geometry" />
        </mxCell>
        <mxCell id="kxPsCWveaDNPL1U-g0tw-30" value="" style="rounded=0;whiteSpace=wrap;html=1;" vertex="1" parent="1">
          <mxGeometry x="310" y="140" width="10" height="30" as="geometry" />
        </mxCell>
        <mxCell id="kxPsCWveaDNPL1U-g0tw-31" value="" style="rounded=0;whiteSpace=wrap;html=1;" vertex="1" parent="1">
          <mxGeometry x="320" y="140" width="10" height="30" as="geometry" />
        </mxCell>
        <mxCell id="kxPsCWveaDNPL1U-g0tw-32" value="" style="rounded=0;whiteSpace=wrap;html=1;" vertex="1" parent="1">
          <mxGeometry x="330" y="140" width="10" height="30" as="geometry" />
        </mxCell>
        <mxCell id="kxPsCWveaDNPL1U-g0tw-33" value="" style="rounded=0;whiteSpace=wrap;html=1;" vertex="1" parent="1">
          <mxGeometry x="340" y="140" width="10" height="30" as="geometry" />
        </mxCell>
        <mxCell id="kxPsCWveaDNPL1U-g0tw-34" value="" style="rounded=0;whiteSpace=wrap;html=1;" vertex="1" parent="1">
          <mxGeometry x="350" y="140" width="10" height="30" as="geometry" />
        </mxCell>
        <mxCell id="kxPsCWveaDNPL1U-g0tw-35" value="" style="rounded=0;whiteSpace=wrap;html=1;" vertex="1" parent="1">
          <mxGeometry x="360" y="140" width="10" height="30" as="geometry" />
        </mxCell>
        <mxCell id="kxPsCWveaDNPL1U-g0tw-36" value="" style="rounded=0;whiteSpace=wrap;html=1;" vertex="1" parent="1">
          <mxGeometry x="370" y="140" width="10" height="30" as="geometry" />
        </mxCell>
        <mxCell id="kxPsCWveaDNPL1U-g0tw-37" value="" style="rounded=0;whiteSpace=wrap;html=1;" vertex="1" parent="1">
          <mxGeometry x="380" y="140" width="10" height="30" as="geometry" />
        </mxCell>
        <mxCell id="kxPsCWveaDNPL1U-g0tw-38" value="" style="rounded=0;whiteSpace=wrap;html=1;" vertex="1" parent="1">
          <mxGeometry x="390" y="140" width="10" height="30" as="geometry" />
        </mxCell>
        <mxCell id="kxPsCWveaDNPL1U-g0tw-39" value="" style="rounded=0;whiteSpace=wrap;html=1;" vertex="1" parent="1">
          <mxGeometry x="400" y="140" width="10" height="30" as="geometry" />
        </mxCell>
        <mxCell id="kxPsCWveaDNPL1U-g0tw-40" value="" style="rounded=0;whiteSpace=wrap;html=1;" vertex="1" parent="1">
          <mxGeometry x="410" y="140" width="10" height="30" as="geometry" />
        </mxCell>
        <mxCell id="kxPsCWveaDNPL1U-g0tw-41" value="" style="rounded=0;whiteSpace=wrap;html=1;" vertex="1" parent="1">
          <mxGeometry x="420" y="140" width="10" height="30" as="geometry" />
        </mxCell>
        <mxCell id="kxPsCWveaDNPL1U-g0tw-42" value="" style="rounded=0;whiteSpace=wrap;html=1;" vertex="1" parent="1">
          <mxGeometry x="430" y="140" width="10" height="30" as="geometry" />
        </mxCell>
        <mxCell id="kxPsCWveaDNPL1U-g0tw-43" value="" style="rounded=0;whiteSpace=wrap;html=1;" vertex="1" parent="1">
          <mxGeometry x="440" y="140" width="10" height="30" as="geometry" />
        </mxCell>
        <mxCell id="kxPsCWveaDNPL1U-g0tw-44" value="" style="rounded=0;whiteSpace=wrap;html=1;" vertex="1" parent="1">
          <mxGeometry x="450" y="140" width="10" height="30" as="geometry" />
        </mxCell>
        <mxCell id="kxPsCWveaDNPL1U-g0tw-45" value="" style="rounded=0;whiteSpace=wrap;html=1;" vertex="1" parent="1">
          <mxGeometry x="460" y="140" width="10" height="30" as="geometry" />
        </mxCell>
        <mxCell id="kxPsCWveaDNPL1U-g0tw-46" value="" style="rounded=0;whiteSpace=wrap;html=1;" vertex="1" parent="1">
          <mxGeometry x="470" y="140" width="10" height="30" as="geometry" />
        </mxCell>
        <mxCell id="kxPsCWveaDNPL1U-g0tw-47" value="" style="rounded=0;whiteSpace=wrap;html=1;" vertex="1" parent="1">
          <mxGeometry x="480" y="140" width="10" height="30" as="geometry" />
        </mxCell>
        <mxCell id="kxPsCWveaDNPL1U-g0tw-48" value="" style="rounded=0;whiteSpace=wrap;html=1;" vertex="1" parent="1">
          <mxGeometry x="490" y="140" width="10" height="30" as="geometry" />
        </mxCell>
        <mxCell id="kxPsCWveaDNPL1U-g0tw-49" value="" style="rounded=0;whiteSpace=wrap;html=1;" vertex="1" parent="1">
          <mxGeometry x="500" y="140" width="10" height="30" as="geometry" />
        </mxCell>
        <mxCell id="kxPsCWveaDNPL1U-g0tw-50" value="" style="rounded=0;whiteSpace=wrap;html=1;" vertex="1" parent="1">
          <mxGeometry x="510" y="140" width="10" height="30" as="geometry" />
        </mxCell>
        <mxCell id="kxPsCWveaDNPL1U-g0tw-51" value="" style="rounded=0;whiteSpace=wrap;html=1;" vertex="1" parent="1">
          <mxGeometry x="520" y="140" width="10" height="30" as="geometry" />
        </mxCell>
        <mxCell id="kxPsCWveaDNPL1U-g0tw-127" value="" style="rounded=0;whiteSpace=wrap;html=1;" vertex="1" parent="1">
          <mxGeometry x="530" y="140" width="10" height="30" as="geometry" />
        </mxCell>
        <mxCell id="kxPsCWveaDNPL1U-g0tw-128" value="" style="rounded=0;whiteSpace=wrap;html=1;" vertex="1" parent="1">
          <mxGeometry x="540" y="140" width="10" height="30" as="geometry" />
        </mxCell>
        <mxCell id="kxPsCWveaDNPL1U-g0tw-129" value="" style="rounded=0;whiteSpace=wrap;html=1;" vertex="1" parent="1">
          <mxGeometry x="550" y="140" width="10" height="30" as="geometry" />
        </mxCell>
        <mxCell id="kxPsCWveaDNPL1U-g0tw-130" value="" style="rounded=0;whiteSpace=wrap;html=1;" vertex="1" parent="1">
          <mxGeometry x="560" y="140" width="10" height="30" as="geometry" />
        </mxCell>
        <mxCell id="kxPsCWveaDNPL1U-g0tw-131" value="" style="rounded=0;whiteSpace=wrap;html=1;" vertex="1" parent="1">
          <mxGeometry x="570" y="140" width="10" height="30" as="geometry" />
        </mxCell>
        <mxCell id="kxPsCWveaDNPL1U-g0tw-132" value="" style="rounded=0;whiteSpace=wrap;html=1;" vertex="1" parent="1">
          <mxGeometry x="580" y="140" width="10" height="30" as="geometry" />
        </mxCell>
        <mxCell id="kxPsCWveaDNPL1U-g0tw-133" value="" style="rounded=0;whiteSpace=wrap;html=1;" vertex="1" parent="1">
          <mxGeometry x="590" y="140" width="10" height="30" as="geometry" />
        </mxCell>
        <mxCell id="kxPsCWveaDNPL1U-g0tw-134" value="" style="rounded=0;whiteSpace=wrap;html=1;" vertex="1" parent="1">
          <mxGeometry x="600" y="140" width="10" height="30" as="geometry" />
        </mxCell>
        <mxCell id="kxPsCWveaDNPL1U-g0tw-135" value="" style="rounded=0;whiteSpace=wrap;html=1;" vertex="1" parent="1">
          <mxGeometry x="610" y="140" width="10" height="30" as="geometry" />
        </mxCell>
        <mxCell id="kxPsCWveaDNPL1U-g0tw-136" value="" style="rounded=0;whiteSpace=wrap;html=1;" vertex="1" parent="1">
          <mxGeometry x="620" y="140" width="10" height="30" as="geometry" />
        </mxCell>
        <mxCell id="kxPsCWveaDNPL1U-g0tw-137" value="" style="rounded=0;whiteSpace=wrap;html=1;" vertex="1" parent="1">
          <mxGeometry x="630" y="140" width="10" height="30" as="geometry" />
        </mxCell>
        <mxCell id="kxPsCWveaDNPL1U-g0tw-138" value="" style="rounded=0;whiteSpace=wrap;html=1;" vertex="1" parent="1">
          <mxGeometry x="640" y="140" width="10" height="30" as="geometry" />
        </mxCell>
        <mxCell id="kxPsCWveaDNPL1U-g0tw-139" value="" style="rounded=0;whiteSpace=wrap;html=1;" vertex="1" parent="1">
          <mxGeometry x="650" y="140" width="10" height="30" as="geometry" />
        </mxCell>
        <mxCell id="kxPsCWveaDNPL1U-g0tw-140" value="" style="rounded=0;whiteSpace=wrap;html=1;" vertex="1" parent="1">
          <mxGeometry x="660" y="140" width="10" height="30" as="geometry" />
        </mxCell>
        <mxCell id="kxPsCWveaDNPL1U-g0tw-141" value="" style="rounded=0;whiteSpace=wrap;html=1;" vertex="1" parent="1">
          <mxGeometry x="670" y="140" width="10" height="30" as="geometry" />
        </mxCell>
        <mxCell id="kxPsCWveaDNPL1U-g0tw-142" value="" style="rounded=0;whiteSpace=wrap;html=1;" vertex="1" parent="1">
          <mxGeometry x="680" y="140" width="10" height="30" as="geometry" />
        </mxCell>
        <mxCell id="kxPsCWveaDNPL1U-g0tw-143" value="" style="rounded=0;whiteSpace=wrap;html=1;" vertex="1" parent="1">
          <mxGeometry x="690" y="140" width="10" height="30" as="geometry" />
        </mxCell>
        <mxCell id="kxPsCWveaDNPL1U-g0tw-144" value="" style="rounded=0;whiteSpace=wrap;html=1;" vertex="1" parent="1">
          <mxGeometry x="700" y="140" width="10" height="30" as="geometry" />
        </mxCell>
        <mxCell id="kxPsCWveaDNPL1U-g0tw-145" value="" style="rounded=0;whiteSpace=wrap;html=1;" vertex="1" parent="1">
          <mxGeometry x="710" y="140" width="10" height="30" as="geometry" />
        </mxCell>
        <mxCell id="kxPsCWveaDNPL1U-g0tw-146" value="" style="rounded=0;whiteSpace=wrap;html=1;" vertex="1" parent="1">
          <mxGeometry x="720" y="140" width="10" height="30" as="geometry" />
        </mxCell>
        <mxCell id="kxPsCWveaDNPL1U-g0tw-147" value="" style="rounded=0;whiteSpace=wrap;html=1;" vertex="1" parent="1">
          <mxGeometry x="730" y="140" width="10" height="30" as="geometry" />
        </mxCell>
        <mxCell id="kxPsCWveaDNPL1U-g0tw-148" value="" style="rounded=0;whiteSpace=wrap;html=1;" vertex="1" parent="1">
          <mxGeometry x="740" y="140" width="10" height="30" as="geometry" />
        </mxCell>
        <mxCell id="kxPsCWveaDNPL1U-g0tw-149" value="" style="rounded=0;whiteSpace=wrap;html=1;" vertex="1" parent="1">
          <mxGeometry x="750" y="140" width="10" height="30" as="geometry" />
        </mxCell>
        <mxCell id="kxPsCWveaDNPL1U-g0tw-150" value="" style="rounded=0;whiteSpace=wrap;html=1;" vertex="1" parent="1">
          <mxGeometry x="760" y="140" width="10" height="30" as="geometry" />
        </mxCell>
        <mxCell id="kxPsCWveaDNPL1U-g0tw-151" value="" style="rounded=0;whiteSpace=wrap;html=1;" vertex="1" parent="1">
          <mxGeometry x="770" y="140" width="10" height="30" as="geometry" />
        </mxCell>
        <mxCell id="kxPsCWveaDNPL1U-g0tw-152" value="" style="endArrow=classic;html=1;rounded=0;entryX=0.5;entryY=0;entryDx=0;entryDy=0;" edge="1" parent="1" target="kxPsCWveaDNPL1U-g0tw-1">
          <mxGeometry width="50" height="50" relative="1" as="geometry">
            <mxPoint x="55" y="120" as="sourcePoint" />
            <mxPoint x="310" y="180" as="targetPoint" />
          </mxGeometry>
        </mxCell>
        <mxCell id="kxPsCWveaDNPL1U-g0tw-153" value="x0" style="text;html=1;align=center;verticalAlign=middle;resizable=0;points=[];autosize=1;strokeColor=none;fillColor=none;" vertex="1" parent="1">
          <mxGeometry x="35" y="98" width="40" height="30" as="geometry" />
        </mxCell>
        <mxCell id="kxPsCWveaDNPL1U-g0tw-154" value="" style="endArrow=classic;html=1;rounded=0;entryX=0.5;entryY=0;entryDx=0;entryDy=0;" edge="1" parent="1">
          <mxGeometry width="50" height="50" relative="1" as="geometry">
            <mxPoint x="775" y="120" as="sourcePoint" />
            <mxPoint x="775" y="140" as="targetPoint" />
          </mxGeometry>
        </mxCell>
        <mxCell id="kxPsCWveaDNPL1U-g0tw-155" value="xn" style="text;html=1;align=center;verticalAlign=middle;resizable=0;points=[];autosize=1;strokeColor=none;fillColor=none;" vertex="1" parent="1">
          <mxGeometry x="755" y="98" width="40" height="30" as="geometry" />
        </mxCell>
      </root>
    </mxGraphModel>
  </diagram>
</mxfile>
